<svg width="47" height="45" viewBox="0 0 47 45" fill="none" xmlns="http://www.w3.org/2000/svg">
<path d="M22.2884 0.0538636C19.7187 0.176279 17.3432 0.670839 14.9319 1.57671C8.86273 3.85854 4.01458 8.51034 1.6186 14.3471C0.188165 17.8237 -0.307378 21.7263 0.203491 25.4135C0.566209 27.994 1.27121 30.1926 2.48197 32.5234C3.69273 34.8444 4.93414 36.4946 6.8499 38.3357C9.18458 40.5783 11.8258 42.2677 14.7377 43.3841C16.6841 44.1284 19.0801 44.7013 20.8733 44.858C21.752 44.9314 25.2208 44.9314 26.1301 44.858C27.6934 44.7258 29.8595 44.2459 31.576 43.6534C37.0474 41.7633 41.8138 37.704 44.5163 32.636C45.6607 30.4913 46.5036 27.8961 46.8203 25.5114C47.0604 23.7193 47.0451 20.8156 46.7897 19.2731C46.0489 14.827 44.2711 11.1349 41.2263 7.73667C37.6145 3.70675 32.1635 0.896083 26.6665 0.225246C26.0637 0.151796 23.6013 -0.00489593 23.2693 0.00979395C23.1875 0.00979395 22.7431 0.0342771 22.2884 0.0538636ZM25.3843 1.76279C26.3345 1.83624 26.8658 1.89989 27.6883 2.06148C30.6513 2.62459 33.599 3.82427 36.0154 5.44995C37.5378 6.47334 39.2901 8.05006 40.5009 9.48966C42.0131 11.2818 43.3515 13.593 44.1025 15.7182C44.5163 16.8738 44.9352 18.519 45.0834 19.5277C45.3235 21.2269 45.3031 23.969 45.0272 25.8297C44.8586 27.0098 44.3528 28.7824 43.8215 30.0653C42.8304 32.4597 41.0015 35.2214 39.3974 36.7443L38.8865 37.2291L38.6464 36.8422C38.299 36.2791 37.9619 35.5838 37.5736 34.6436C37.17 33.6594 36.981 33.3264 36.5825 32.8466C35.76 31.8575 35.4075 31.6812 32.9758 31.0446C31.7599 30.7263 29.7777 30.1338 29.0625 29.8694C28.0765 29.512 27.77 29.272 27.3051 28.5229C26.9986 28.0185 26.876 27.7247 26.9526 27.6757C27.2643 27.4652 27.8313 27.0392 28.0612 26.8335C28.6283 26.339 29.3793 25.4037 29.8952 24.5517C31.3665 22.1279 31.8468 17.9363 30.9834 15.0571C30.7228 14.1855 30.1456 13.2111 29.4968 12.5403C28.194 11.1937 25.9718 10.5082 23.1466 10.5914C21.0316 10.6551 19.5808 11.0321 18.3904 11.84C17.9511 12.1387 17.2461 12.8243 16.9498 13.2503C16.0251 14.5773 15.6318 16.1001 15.6318 18.3721C15.6318 20.6197 16.0609 22.5245 16.9396 24.1942C17.5628 25.3841 18.6152 26.5985 19.6625 27.3477C19.8873 27.5093 20.0712 27.6757 20.0763 27.7198C20.0763 27.8569 19.6676 28.6012 19.4224 28.8999C19.0239 29.3896 18.5182 29.6882 17.5322 30.0212C16.8885 30.2416 14.5896 30.9075 13.5985 31.1621C11.7083 31.6518 11.5397 31.7203 10.9011 32.3373C10.1654 33.0473 9.83338 33.5713 9.34806 34.815C9.23056 35.1235 9.05175 35.5348 8.9649 35.7307C8.80653 36.0637 8.20882 37.0919 8.12197 37.1801C8.07599 37.2291 7.03382 36.1518 6.44632 35.4516C4.39773 32.9886 2.7323 29.556 2.1448 26.6132C1.99664 25.8542 1.8536 24.6056 1.78208 23.445C1.51643 18.9548 2.94686 14.2541 5.70045 10.5424C7.16153 8.57399 9.23567 6.61045 11.1872 5.34222C13.6291 3.75571 16.7148 2.52666 19.5654 2.01251C20.0303 1.92927 21.4301 1.75299 22.1198 1.69423C22.4723 1.66485 24.6639 1.70892 25.3843 1.76279Z" fill="url(#paint0_linear)"/>
<defs>
<linearGradient id="paint0_linear" x1="23.4995" y1="44.9131" x2="23.4995" y2="0.00882721" gradientUnits="userSpaceOnUse">
<stop stop-color="#8BA4F9"/>
<stop offset="1" stop-color="#BC9CFF"/>
</linearGradient>
</defs>
</svg>
